<?xml version="1.0" encoding="UTF-8" standalone="no" ?>
<!DOCTYPE svg PUBLIC "-//W3C//DTD SVG 1.1//EN" "http://www.w3.org/Graphics/SVG/1.1/DTD/svg11.dtd">
<svg xmlns="http://www.w3.org/2000/svg" xmlns:xlink="http://www.w3.org/1999/xlink" version="1.1" width="1080" height="1080" viewBox="0 0 1080 1080" xml:space="preserve">
<desc>Created with Fabric.js 5.2.4</desc>
<defs>
</defs>
<g transform="matrix(1 0 0 1 540 540)" id="260ec424-f0b0-45ed-b397-2fd746c57891"  >
<rect style="stroke: none; stroke-width: 1; stroke-dasharray: none; stroke-linecap: butt; stroke-dashoffset: 0; stroke-linejoin: miter; stroke-miterlimit: 4; fill: rgb(255,255,255); fill-rule: nonzero; opacity: 1; visibility: hidden;" vector-effect="non-scaling-stroke"  x="-540" y="-540" rx="0" ry="0" width="1080" height="1080" />
</g>
<g transform="matrix(1 0 0 1 540 540)" id="7d30e929-7010-4656-866a-e7abccee2f70"  >
</g>
<g transform="matrix(4.39 0 0 4.39 540 540)" id="svg_7"  >
<path style="stroke: rgb(0,0,0); stroke-width: 0; stroke-dasharray: none; stroke-linecap: butt; stroke-dashoffset: 0; stroke-linejoin: miter; stroke-miterlimit: 4; fill: rgb(153,153,153); fill-rule: nonzero; opacity: 1;" vector-effect="non-scaling-stroke"  transform=" translate(-220.94, -170.05)" d="M 280.73 58.91 C 295.05 62.18 304.18 66.46 311.62 73.34 C 316.7 78.3 321.32 86.86 321.32 91.71000000000001 C 321.32 96.00000000000001 323.46 100.39000000000001 327.40999999999997 104.68 C 332.03 109.64 333.95 114.49000000000001 333.49999999999994 120.01 C 333.2699999999999 123.51 332.36999999999995 124.86 329.31999999999994 126.89 C 324.24999999999994 130.27 317.5999999999999 130.27 305.41999999999996 126.66 C 294.37999999999994 123.39 283.21 122.14999999999999 276.78999999999996 123.50999999999999 L 272.27 124.52 L 271.59999999999997 134.67 C 270.7 146.51 267.77 153.72 263.03 155.52999999999997 C 258.29999999999995 157.32999999999998 254.68999999999997 154.95999999999998 249.39 146.95999999999998 C 246.79999999999998 142.89999999999998 244.2 139.62999999999997 243.64 139.62999999999997 C 243.19 139.62999999999997 242.39999999999998 141.87999999999997 242.05999999999997 144.69999999999996 C 239.68999999999997 161.49999999999997 224.46999999999997 176.71999999999997 209.58999999999997 177.16999999999996 C 200.22999999999996 177.50999999999996 197.40999999999997 171.98999999999995 201.24999999999997 161.04999999999995 C 203.94999999999996 153.37999999999997 203.60999999999999 152.58999999999995 198.42999999999998 155.52999999999994 C 187.71999999999997 161.49999999999994 176.32999999999998 173.44999999999993 169.33999999999997 185.85999999999996 C 163.7 195.88999999999996 157.72999999999996 213.47999999999996 158.06999999999996 219.10999999999996 C 158.39999999999998 223.28999999999996 158.62999999999997 223.62999999999997 162.45999999999995 224.29999999999995 C 174.74999999999994 226.21999999999994 184.66999999999996 236.47999999999996 185.12999999999994 247.74999999999994 C 185.45999999999995 256.0899999999999 180.60999999999993 259.24999999999994 174.06999999999994 255.07999999999996 C 171.70999999999992 253.49999999999994 170.79999999999993 253.38999999999996 168.54999999999993 254.62999999999997 C 166.74999999999991 255.52999999999997 164.03999999999994 255.86999999999998 160.65999999999994 255.41999999999996 C 157.15999999999994 254.85999999999996 154.67999999999995 255.18999999999997 152.98999999999995 256.21 C 151.63999999999996 257.10999999999996 148.47999999999996 258.13 145.99999999999994 258.57 C 133.93999999999994 260.61 126.94999999999995 266.24 125.58999999999995 274.81 C 124.68999999999994 280.34 121.87999999999995 283.15 117.58999999999995 282.59 C 115.10999999999994 282.35999999999996 113.86999999999995 281.13 111.60999999999994 276.60999999999996 C 107.66999999999994 268.60999999999996 107.21999999999994 258.34999999999997 110.48999999999994 249.77999999999997 C 113.18999999999994 242.56999999999996 122.65999999999994 231.96999999999997 132.35999999999993 225.53999999999996 L 137.76999999999992 221.81999999999996 L 136.97999999999993 216.51999999999995 C 132.01999999999992 183.48999999999995 136.52999999999994 144.69999999999996 148.81999999999994 116.17999999999995 C 150.16999999999993 113.12999999999995 151.06999999999994 109.06999999999995 150.84999999999994 107.37999999999995 C 150.50999999999993 104.33999999999995 150.16999999999993 104.10999999999996 144.30999999999995 103.54999999999995 C 140.92999999999995 103.20999999999995 137.42999999999995 102.53999999999995 136.63999999999996 102.08999999999996 C 132.80999999999995 99.60999999999996 137.87999999999997 88.10999999999996 145.77999999999997 81.44999999999996 C 151.18999999999997 76.94999999999996 162.23999999999998 72.08999999999996 170.35999999999996 70.73999999999995 C 174.52999999999994 70.06999999999995 182.86999999999995 69.83999999999995 189.96999999999997 70.17999999999995 L 202.37999999999997 70.96999999999996 L 214.65999999999997 66.33999999999996 C 221.42999999999998 63.74999999999996 232.02999999999997 60.70999999999996 238.33999999999997 59.46999999999996 C 251.29999999999998 56.98999999999997 270.91999999999996 56.75999999999996 280.72999999999996 58.90999999999996 z M 232.70000000000002 65.67 C 203.95000000000002 71.98 180.95000000000002 88.22 165.39000000000001 113.47 C 162.57000000000002 117.98 159.19000000000003 124.63 157.84 128.36 C 154.57 137.26000000000002 153.78 136.36 156.71 127.11000000000001 C 162.8 107.95000000000002 175.99 88.67000000000002 188.73000000000002 80.21000000000001 C 191.55 78.30000000000001 193.58 76.49000000000001 193.13000000000002 76.04 C 191.10000000000002 74.13000000000001 162.91000000000003 76.61 160.55 78.97000000000001 C 160.32000000000002 79.31000000000002 165.39000000000001 79.31000000000002 171.93 78.97000000000001 C 179.49 78.63000000000001 183.77 78.86000000000001 183.77 79.65000000000002 C 183.77 80.21000000000002 182.08 82.02000000000002 180.05 83.59000000000002 C 176.78 86.07000000000002 175.32000000000002 86.41000000000001 166.3 86.30000000000001 C 159.08 86.30000000000001 154.8 86.86000000000001 151.64000000000001 88.22000000000001 C 146.57000000000002 90.36000000000001 142.05 94.19000000000001 142.05 96.45000000000002 C 142.05 98.25000000000001 147.69 98.36000000000001 153.33 96.79000000000002 C 161.9 94.30000000000003 163.36 98.82000000000002 158.29000000000002 111.55000000000003 C 155.13000000000002 119.45000000000003 147.69000000000003 140.3 147.13000000000002 143.01000000000002 C 146.90000000000003 143.91000000000003 145.66000000000003 148.99 144.42000000000002 154.29000000000002 C 138.45000000000002 179.20000000000002 138.67000000000002 206.94000000000003 144.99 225.54000000000002 L 147.58 233.21 L 142.84 234.34 C 131.91 237.15 124.58 241.89000000000001 120.07000000000001 248.99 C 116.13000000000001 255.19 114.09 267.48 116.01 273.68 C 117.36 278.53000000000003 119.17 279.66 120.30000000000001 276.27 C 123.79 265.68 130.55 259.47999999999996 142.28 256.21 C 148.93 254.29 153.33 251.24999999999997 153.33 248.42999999999998 C 153.33 245.95 154.68 246.39999999999998 157.73000000000002 249.67 C 160.21 252.14999999999998 161.11 252.48 165.05 251.80999999999997 C 167.65 251.35999999999999 171.82000000000002 251.01999999999998 174.41000000000003 251.01999999999998 C 179.60000000000002 250.90999999999997 179.94000000000003 250.33999999999997 179.38000000000002 243.45999999999998 C 178.70000000000002 236.58999999999997 170.92000000000002 231.51999999999998 159.08 230.27999999999997 L 151.98000000000002 229.48999999999998 L 152.65 221.26 C 153.11 216.75 154.12 210.88 155.02 208.29 C 158.86 197.69 154.34 204.34 149.05 217.42 C 148.14000000000001 219.57 147.8 217.30999999999997 147.69 207.27999999999997 C 147.35999999999999 190.47999999999996 147.35999999999999 190.35999999999996 150.17 179.2 C 155.47 157.22 168.32 138.04999999999998 189.17999999999998 120.69 C 199.89 111.89 202.03999999999996 111.33 194.48 119.45 C 190.76 123.51 186.25 129.48 184.45 132.86 L 181.07 139.07000000000002 L 188.28 132.64000000000001 C 195.61 125.99000000000001 204.97 120.46000000000001 209.03 120.46000000000001 C 211.28 120.46000000000001 211.28 120.57000000000001 208.8 122.27000000000001 C 205.87 124.30000000000001 205.76000000000002 127.11000000000001 208.01000000000002 133.43 C 209.82000000000002 138.61 210.04000000000002 149.21 208.46 156.54000000000002 C 205.87 168.72000000000003 205.87 168.61 208.57000000000002 170.07000000000002 C 215.68000000000004 173.90000000000003 225.38000000000002 157.22000000000003 231.8 130.05 C 234.84 117.08000000000001 236.88000000000002 112.01000000000002 239.24 111.11000000000001 C 242.17000000000002 109.98000000000002 234.62 110.32000000000001 231.46 111.55000000000001 C 228.64000000000001 112.57000000000001 228.53 112.46000000000001 230 110.99000000000001 C 233.04 107.95 244.77 104.68 251.98 104.79 C 258.75 104.9 267.77 106.48 263.25 106.82000000000001 C 260.1 107.05000000000001 250.07 111.89000000000001 248.15 114.04 C 246.23000000000002 116.4 246 116.4 257.28000000000003 113.7 C 274.3 109.64 282.88000000000005 110.88000000000001 306.66 120.91 C 316.02000000000004 124.86 322.56 125.88 325.6 123.96 C 326.62 123.39 324.59000000000003 122.83 320.3 122.38 C 312.75 121.69999999999999 304.52000000000004 117.64 297.19 110.88 C 293.7 107.72 293.02 106.58999999999999 294.15 105.47 C 295.15999999999997 104.45 296.28999999999996 105.02 299.10999999999996 108.17 C 303.84 113.25 311.28999999999996 117.64 318.27 119.45 C 323.22999999999996 120.69 323.90999999999997 120.57000000000001 326.04999999999995 118.55 C 328.0799999999999 116.39999999999999 328.0799999999999 115.95 326.61999999999995 112.34 C 324.69999999999993 107.84 319.84999999999997 103.66 315.4599999999999 102.76 C 311.9599999999999 102.09 311.3999999999999 100.73 313.9899999999999 99.83 C 317.1499999999999 98.59 312.6399999999999 89.00999999999999 305.4199999999999 81.78999999999999 C 298.4299999999999 74.91 298.3199999999999 74.46 303.1699999999999 76.94999999999999 C 307.2299999999999 79.08999999999999 312.5199999999999 85.16999999999999 314.4399999999999 89.79999999999998 C 316.6999999999999 95.20999999999998 318.0499999999999 94.07999999999998 316.1299999999999 88.43999999999998 C 312.1899999999999 76.82999999999998 299.32999999999987 68.25999999999999 280.7299999999999 64.76999999999998 C 269.1199999999999 62.62999999999998 244.7699999999999 63.06999999999998 232.6999999999999 65.66999999999999 z M 238.79000000000002 117.19 C 237.66000000000003 118.66 236.42000000000002 122.14999999999999 236.09000000000003 124.97 C 234.39000000000004 138.28 228.08000000000004 155.19 220.41000000000003 166.35 C 218.95000000000002 168.60999999999999 217.93000000000004 170.75 218.16000000000003 171.09 C 219.17000000000002 171.99 227.07000000000002 164.88 230.11 160.38 C 233.61 155.07 236.20000000000002 147.97 237.78 139.29 C 238.45 135.79999999999998 239.58 129.93 240.26 126.32 C 240.92999999999998 122.83 242.39999999999998 118.21 243.64 116.17999999999999 C 244.76999999999998 114.14999999999999 245.77999999999997 112.11999999999999 245.77999999999997 111.77999999999999 C 245.77999999999997 110.64999999999999 240.81999999999996 114.48999999999998 238.78999999999996 117.18999999999998 z M 252.09000000000003 117.3 C 246.80000000000004 119.11 243.75000000000003 122.94 242.73000000000002 128.8 L 242.06000000000003 133.09 L 248.04000000000002 129.03 C 257.73 122.38 266.75 120.24000000000001 283.44 120.69 C 291.11 120.91 297.19 120.69 296.96 120.24 C 296.52 119.55999999999999 289.19 116.97 283.54999999999995 115.5 C 279.48999999999995 114.49 256.60999999999996 115.73 252.08999999999995 117.3 z M 194.37000000000003 139.97 C 186.03000000000003 146.17 177.23000000000002 155.53 173.06000000000003 162.63 C 169.90000000000003 168.04 164.15000000000003 182.47 164.94000000000003 183.15 C 165.17000000000002 183.38 168.66000000000003 179.32 172.84000000000003 174.13 C 180.50000000000003 164.43 194.14000000000004 152.48 200.46000000000004 149.89 C 203.84000000000003 148.42 204.07000000000005 148.08999999999997 204.07000000000005 142.45 C 204.07000000000005 133.42999999999998 203.39000000000004 133.32 194.37000000000006 139.97 z M 194.37000000000003 139.97" stroke-linecap="round" />
</g>
</svg>