<?xml version="1.0" encoding="utf-8"?>
<svg viewBox="13.136 7.35 48.137 26.695" xmlns="http://www.w3.org/2000/svg">
  <defs>
    <clipPath id="8d67d05e-4cd1-4180-902e-b58220250b3d_comp-lku0z6wj">
      <path d="M37 7.336h11V19H37Zm0 0"/>
    </clipPath>
    <clipPath id="c269dab9-1944-4b3c-b44f-54d8a746f91c_comp-lku0z6wj">
      <path d="M22 7.336h10V27H22Zm0 0"/>
    </clipPath>
    <clipPath id="e9b23f8a-10ee-4b2e-a72d-64f8ca291d31_comp-lku0z6wj">
      <path d="M22 25h4v4.54h-4Zm0 0"/>
    </clipPath>
    <clipPath id="e738c1f6-cc62-41c9-a56f-3bfe3d9a330a_comp-lku0z6wj">
      <path d="M17.906 20H23v9.54h-5.094Zm0 0"/>
    </clipPath>
    <clipPath id="19716d42-e944-4576-9f58-8ca7d5598b3d_comp-lku0z6wj">
      <path d="M29 7.336h11V21H29Zm0 0"/>
    </clipPath>
    <clipPath id="e84d1971-a0d0-4f04-9ee6-2eacf419b7b0_comp-lku0z6wj">
      <path d="M26 21h16v8.54H26Zm0 0"/>
    </clipPath>
    <clipPath id="afde056f-bcfe-47ad-912b-02e2df01b470_comp-lku0z6wj">
      <path d="M44 7.336h7V17h-7Zm0 0"/>
    </clipPath>
    <clipPath id="3e16436b-37ac-489f-88ee-bcdf7af5fc62_comp-lku0z6wj">
      <path d="M50 14h7.133v6H50Zm0 0"/>
    </clipPath>
  </defs>
  <g style="" transform="matrix(1.2070369720458984, 0, 0, 1.1767749786376953, -8.182229042053223, -0.975072979927063)">
    <g clip-path="url(#8d67d05e-4cd1-4180-902e-b58220250b3d_comp-lku0z6wj)">
      <path d="m37.402 15.813 9.477 2.753.719-.824-2.926-5.023a.104.104 0 0 1-.012-.047l-.137-4.735-3.05-.386-2.285 1.039Zm9.512 2.968c-.008 0-.02 0-.027-.004l-9.633-2.8c-.055-.016-.086-.067-.07-.122L39 8.496a.1.1 0 0 1 .059-.066l2.355-1.075c.02-.003.035-.007.059-.003l3.164.398c.05.008.086.047.09.098l.132 4.793 2.953 5.062c.02.04.016.086-.011.117l-.809.93a.11.11 0 0 1-.078.031" fill="#5b3f2c" data-color="1"/>
    </g>
    <g clip-path="url(#c269dab9-1944-4b3c-b44f-54d8a746f91c_comp-lku0z6wj)">
      <path d="m25.422 14.715 5.113 5.39 1.016-4.554-1.137-3.621Zm-2.762 1.543v9.5l7.781-5.461-5.199-5.48Zm-.101 9.793a.104.104 0 0 1-.047-.012.094.094 0 0 1-.055-.086V16.2c0-.039.02-.07.05-.09l2.59-1.441-1.452-1.535a.112.112 0 0 1-.028-.07.11.11 0 0 1 .035-.07l5.797-5.067a.103.103 0 0 1 .14.008.096.096 0 0 1-.007.14l-5.715 5 1.414 1.492 5.145-2.87a.096.096 0 0 1 .086-.008c.031.011.05.035.058.062l1.18 3.766a.107.107 0 0 1 .004.05l-1.063 4.77a.104.104 0 0 1-.035.059h-.004l-8.035 5.64a.11.11 0 0 1-.058.016" fill="#5b3f2c" data-color="1"/>
    </g>
    <g clip-path="url(#e9b23f8a-10ee-4b2e-a72d-64f8ca291d31_comp-lku0z6wj)">
      <path d="M22.66 29.363h2.36v-1.52l-2.36-1.695Zm2.457.203H22.56a.103.103 0 0 1-.102-.101v-3.512c0-.039.02-.074.055-.09a.095.095 0 0 1 .105.008l2.559 1.84a.09.09 0 0 1 .043.078v1.676a.1.1 0 0 1-.102.101" fill="#5b3f2c" data-color="1"/>
    </g>
    <g clip-path="url(#e738c1f6-cc62-41c9-a56f-3bfe3d9a330a_comp-lku0z6wj)">
      <path d="M22.559 29.566a.096.096 0 0 1-.063-.023l-4.516-3.512a.125.125 0 0 1-.039-.074.1.1 0 0 1 .028-.074l4.515-4.887a.104.104 0 0 1 .141-.004c.043.04.047.102.008.14l-4.442 4.805 4.43 3.45a.1.1 0 0 1 .016.14.108.108 0 0 1-.078.04" fill="#5b3f2c" data-color="1"/>
    </g>
    <path d="M22.559 16.297c-.012 0-.024 0-.036-.004a.101.101 0 0 1-.058-.129l1.16-3.133a.101.101 0 0 1 .129-.058.1.1 0 0 1 .062.129l-1.164 3.132a.098.098 0 0 1-.093.063" fill="#5b3f2c" data-color="1"/>
    <g clip-path="url(#19716d42-e944-4576-9f58-8ca7d5598b3d_comp-lku0z6wj)">
      <path d="M30.594 20.414a.103.103 0 0 1-.086-.047c-.031-.043-.016-.105.027-.137l6.559-4.343-6.672-4.02a.092.092 0 0 1-.043-.062l-.961-3.778a.1.1 0 0 1 .11-.125l6.796.7 2.77-.184a.098.098 0 0 1 .105.094.104.104 0 0 1-.094.11l-2.777.183h-.02l-6.66-.688.915 3.602 6.769 4.078c.031.015.05.047.05.082s-.019.066-.046.086l-6.688 4.43a.073.073 0 0 1-.054.02" fill="#5b3f2c" data-color="1"/>
    </g>
    <g clip-path="url(#e84d1971-a0d0-4f04-9ee6-2eacf419b7b0_comp-lku0z6wj)">
      <path d="M26.887 23.074v4.356l3.992-.922-.067-3.785Zm14.504 6.492h-2.832a.137.137 0 0 1-.063-.023l-1.785-1.473a.096.096 0 0 1-.035-.086l.496-5.836-6.156.555.066 3.883c0 .047-.031.09-.078.098l-4.195.972a.114.114 0 0 1-.086-.02.108.108 0 0 1-.04-.077v-4.575c0-.05.044-.093.094-.101l4.121-.371h.004l6.368-.575a.1.1 0 0 1 .082.028c.02.023.03.05.03.078l-.503 5.906 1.719 1.414h2.66l-.84-3.05a.095.095 0 0 1 .07-.122c.051-.02.11.012.125.067l.875 3.18a.121.121 0 0 1-.015.09.117.117 0 0 1-.082.038" fill="#5b3f2c" data-color="1"/>
    </g>
    <path d="M42.906 29.566h-1.515a.103.103 0 0 1-.102-.101c0-.055.047-.102.102-.102h1.414v-1.695l-2.012-.273-3.992.574c-.059.004-.11-.032-.117-.086a.1.1 0 0 1 .086-.113l4.007-.575c.012-.004.02-.004.028 0l2.113.285c.05.008.09.051.09.102v1.883a.103.103 0 0 1-.102.101" fill="#5b3f2c" data-color="1"/>
    <path d="m31.21 26.723 1.435 1.523 1.097-.742v-.781Zm1.419 1.757H28.32a.079.079 0 0 1-.05-.015l-1.532-.82a.101.101 0 0 1-.039-.137.101.101 0 0 1 .137-.04l1.508.81h4.054l-1.492-1.59a.096.096 0 0 1-.02-.106.102.102 0 0 1 .094-.062h2.864c.054 0 .101.046.101.101v.938a.102.102 0 0 1-.043.082l-1.215.82a.096.096 0 0 1-.058.02" fill="#5b3f2c" data-color="1"/>
    <g clip-path="url(#afde056f-bcfe-47ad-912b-02e2df01b470_comp-lku0z6wj)">
      <path d="m48.695 9.68 1.485.5.468-.766-5.109-1.238Zm1.883 6.617a.12.12 0 0 1-.05-.012l-5.821-3.531a.1.1 0 0 1-.035-.137.107.107 0 0 1 .14-.035l5.594 3.395-1.832-6.133-3.992-1.903a.098.098 0 0 1-.05-.125.099.099 0 0 1 .116-.062l6.18 1.496a.099.099 0 0 1 .07.059.092.092 0 0 1-.003.09l-.583.953a.108.108 0 0 1-.12.046l-1.38-.464 1.864 6.234c.011.043 0 .086-.035.11a.092.092 0 0 1-.063.019" fill="#5b3f2c" data-color="1"/>
    </g>
    <path d="M51.262 12.125h-.016a.1.1 0 0 1-.07-.047l-1.04-1.726a.1.1 0 0 1 .036-.137c.05-.027.113-.012.14.035l.973 1.617 2.113-1.93-.921-1.164h-1.16l-.426.63a.1.1 0 0 1-.141.027.096.096 0 0 1-.027-.137l.453-.68a.104.104 0 0 1 .086-.043h1.261a.11.11 0 0 1 .082.04l1.008 1.277a.095.095 0 0 1-.011.136l-2.274 2.075a.091.091 0 0 1-.066.027" fill="#5b3f2c" data-color="1"/>
    <path d="M50.578 18.984a.105.105 0 0 1-.058-.02l-1.73-1.276-1.04.265a.106.106 0 0 1-.125-.074c-.012-.05.02-.11.074-.121l1.086-.278a.1.1 0 0 1 .086.02l1.606 1.184v-2.387c0-.04.027-.078.07-.094l5.16-1.832v-.945l-2.684-2.91c-.035-.043-.035-.106.008-.141.04-.04.106-.035.145.004l2.707 2.941a.11.11 0 0 1 .027.067v1.054a.097.097 0 0 1-.066.094l-5.164 1.836v2.512c0 .039-.02.074-.055.09a.104.104 0 0 1-.047.011" fill="#5b3f2c" data-color="1"/>
    <path d="M54.52 19.785a.106.106 0 0 1-.067-.023l-3.879-3.434-1.703 1.328a.1.1 0 0 1-.14-.015.097.097 0 0 1 .019-.141l1.766-1.383a.1.1 0 0 1 .129.008l3.855 3.41 1.57-2.308a.1.1 0 0 1 .14-.028.104.104 0 0 1 .028.137l-1.633 2.406a.112.112 0 0 1-.074.043h-.011" fill="#5b3f2c" data-color="1"/>
    <g clip-path="url(#3e16436b-37ac-489f-88ee-bcdf7af5fc62_comp-lku0z6wj)">
      <path d="M54.52 19.785h-.02l-3.941-.805a.098.098 0 0 1-.079-.117.098.098 0 0 1 .118-.078l3.91.797 2.336-1.16-1.875-2.617a.104.104 0 0 1-.008-.102l.664-1.371c.027-.05.086-.074.137-.047a.1.1 0 0 1 .047.133l-.641 1.32 1.91 2.66a.09.09 0 0 1 .016.082c-.008.028-.024.055-.051.067l-2.477 1.23c-.015.004-.03.008-.046.008" fill="#5b3f2c" data-color="1"/>
    </g>
    <path d="M47.648 28.094h4.403l.578-.645-.543-1.062h-2.164a.099.099 0 0 1-.09-.059l-2.781-5.719a.112.112 0 0 1-.008-.03l-.211-1.743-3.965 1.941 1.13 2.547Zm4.446.199h-4.496a.11.11 0 0 1-.082-.04l-3.688-4.816a.085.085 0 0 0-.012-.019l-1.074-2.426-2.133 5.328c-.015.035-.047.063-.082.067a.11.11 0 0 1-.093-.04l-3.235-4.25a.118.118 0 0 1-.02-.062V15.88c0-.055.044-.098.102-.098a.1.1 0 0 1 .102.098v6.125l3.105 4.078 2.157-5.387a.1.1 0 0 1 .05-.054l4.176-2.051a.113.113 0 0 1 .094.004.108.108 0 0 1 .05.078l.227 1.863 2.742 5.649h2.16a.1.1 0 0 1 .09.054l.606 1.18a.1.1 0 0 1-.012.113l-.66.73a.094.094 0 0 1-.074.032" fill="#5b3f2c" data-color="1"/>
    <path d="M48.887 24.254c-.008 0-.012 0-.02-.004l-5.015-.867a.1.1 0 0 1-.082-.117c.007-.055.058-.09.117-.082l5.015.87a.097.097 0 0 1 .082.118.1.1 0 0 1-.097.082" fill="#5b3f2c" data-color="1"/>
    <path d="M47.598 28.293a.104.104 0 0 1-.078-.035.096.096 0 0 1 .015-.14l2.32-1.911c.04-.031.098-.031.133.004l2.172 1.906a.104.104 0 0 1 .012.145.108.108 0 0 1-.145.008l-2.109-1.852-2.254 1.852a.115.115 0 0 1-.066.023" fill="#5b3f2c" data-color="1"/>
  </g>
</svg>